<svg xmlns="http://www.w3.org/2000/svg" width="1200" height="630" viewBox="0 0 1200 630" role="img" aria-label="Vista previa del portafolio">
  <defs>
    <radialGradient id="a" cx="20%" cy="20%" r="65%">
      <stop offset="0" stop-color="#a78bfa" stop-opacity="0.42"/>
      <stop offset="1" stop-color="#050711" stop-opacity="0"/>
    </radialGradient>
    <radialGradient id="b" cx="80%" cy="10%" r="60%">
      <stop offset="0" stop-color="#8b5cf6" stop-opacity="0.36"/>
      <stop offset="1" stop-color="#050711" stop-opacity="0"/>
    </radialGradient>
  </defs>
  <rect width="1200" height="630" fill="#050711"/>
  <rect width="1200" height="630" fill="url(#a)"/>
  <rect width="1200" height="630" fill="url(#b)"/>
  <g fill="none" stroke="#ffffff" stroke-opacity="0.07">
    <path d="M0 90h1200M0 180h1200M0 270h1200M0 360h1200M0 450h1200M0 540h1200"/>
    <path d="M100 0v630M200 0v630M300 0v630M400 0v630M500 0v630M600 0v630M700 0v630M800 0v630M900 0v630M1000 0v630M1100 0v630"/>
  </g>
  <rect x="92" y="100" width="1016" height="430" rx="42" fill="#ffffff" fill-opacity="0.055" stroke="#ffffff" stroke-opacity="0.14"/>
  <text x="140" y="250" fill="#e0f2fe" font-family="Arial, sans-serif" font-size="34" font-weight="700" letter-spacing="8">TU NOMBRE</text>
  <text x="140" y="330" fill="#ffffff" font-family="Arial, sans-serif" font-size="64" font-weight="800">Portafolio de Ingeniería de Sistemas</text>
  <text x="140" y="400" fill="#cbd5e1" font-family="Arial, sans-serif" font-size="30">Ciberseguridad, Desarrollo, Bases de Datos y Soporte TI</text>
  <circle cx="1010" cy="190" r="54" fill="#a78bfa" fill-opacity="0.16" stroke="#a78bfa" stroke-opacity="0.4"/>
  <text x="972" y="207" fill="#ffffff" font-family="Arial, sans-serif" font-size="36" font-weight="800">TN</text>
</svg>
